{
  "accessors": [
    {
      "bufferView": 2,
      "componentType": 5126,
      "count": 65532,
      "max": [
        0.26216015219688416,
        0.6751987934112549,
        0.9486851096153259
      ],
      "min": [
        -0.26519641280174255,
        -0.10714338719844818,
        0.37728559970855713
      ],
      "type": "VEC3"
    },
    {
      "bufferView": 2,
      "byteOffset": 786384,
      "componentType": 5126,
      "count": 65532,
      "max": [
        0.9999690055847168,
        0.9999690055847168,
        0.9999690055847168
      ],
      "min": [
        -0.9999690055847168,
        -0.9999380111694336,
        -0.9998451471328735
      ],
      "type": "VEC3"
    },
    {
      "bufferView": 3,
      "componentType": 5126,
      "count": 65532,
      "max": [
        0.9999999403953552,
        0.9999838471412659,
        0.999958872795105,
        1.0
      ],
      "min": [
        -0.9999995827674866,
        -0.9999960064888,
        -0.9998969435691833,
        -1.0
      ],
      "type": "VEC4"
    },
    {
      "bufferView": 1,
      "componentType": 5126,
      "count": 65532,
      "max": [
        0.9958815574645996,
        0.9999591708183289
      ],
      "min": [
        7.795380952302366e-05,
        2.014636993408203e-05
      ],
      "type": "VEC2"
    },
    {
      "bufferView": 1,
      "byteOffset": 524256,
      "componentType": 5126,
      "count": 65532,
      "max": [
        0.9958815574645996,
        0.9999591708183289
      ],
      "min": [
        7.795380952302366e-05,
        2.014636993408203e-05
      ],
      "type": "VEC2"
    },
    {
      "bufferView": 1,
      "byteOffset": 1048512,
      "componentType": 5126,
      "count": 65532,
      "max": [
        0.9958815574645996,
        0.9999591708183289
      ],
      "min": [
        7.795380952302366e-05,
        2.014636993408203e-05
      ],
      "type": "VEC2"
    },
    {
      "bufferView": 1,
      "byteOffset": 1572768,
      "componentType": 5126,
      "count": 65532,
      "max": [
        0.9958815574645996,
        0.9999591708183289
      ],
      "min": [
        7.795380952302366e-05,
        2.014636993408203e-05
      ],
      "type": "VEC2"
    },
    {
      "bufferView": 0,
      "componentType": 5125,
      "count": 343764,
      "type": "SCALAR"
    },
    {
      "bufferView": 2,
      "byteOffset": 1572768,
      "componentType": 5126,
      "count": 65532,
      "max": [
        0.2948446571826935,
        0.6749669909477234,
        0.7484055161476135
      ],
      "min": [
        -0.2967219054698944,
        -0.6773838996887207,
        -0.7039691805839539
      ],
      "type": "VEC3"
    },
    {
      "bufferView": 2,
      "byteOffset": 2359152,
      "componentType": 5126,
      "count": 65532,
      "max": [
        1.0,
        0.9998760223388672,
        0.9999380111694336
      ],
      "min": [
        -0.9999690055847168,
        -1.0,
        -0.9998451471328735
      ],
      "type": "VEC3"
    },
    {
      "bufferView": 3,
      "byteOffset": 1048512,
      "componentType": 5126,
      "count": 65532,
      "max": [
        0.9999985098838806,
        0.9999203085899353,
        0.9999971389770508,
        1.0
      ],
      "min": [
        -0.9999985694885254,
        -0.9999998211860657,
        -0.9998161792755127,
        -1.0
      ],
      "type": "VEC4"
    },
    {
      "bufferView": 1,
      "byteOffset": 2097024,
      "componentType": 5126,
      "count": 65532,
      "max": [
        0.9932066202163696,
        0.9999591708183289
      ],
      "min": [
        0.00032112927874550223,
        0.00685733649879694
      ],
      "type": "VEC2"
    },
    {
      "bufferView": 1,
      "byteOffset": 2621280,
      "componentType": 5126,
      "count": 65532,
      "max": [
        0.9932066202163696,
        0.9999591708183289
      ],
      "min": [
        0.00032112927874550223,
        0.00685733649879694
      ],
      "type": "VEC2"
    },
    {
      "bufferView": 1,
      "byteOffset": 3145536,
      "componentType": 5126,
      "count": 65532,
      "max": [
        0.9932066202163696,
        0.9999591708183289
      ],
      "min": [
        0.00032112927874550223,
        0.00685733649879694
      ],
      "type": "VEC2"
    },
    {
      "bufferView": 1,
      "byteOffset": 3669792,
      "componentType": 5126,
      "count": 65532,
      "max": [
        0.9932066202163696,
        0.9999591708183289
      ],
      "min": [
        0.00032112927874550223,
        0.00685733649879694
      ],
      "type": "VEC2"
    },
    {
      "bufferView": 0,
      "byteOffset": 1375056,
      "componentType": 5125,
      "count": 331479,
      "type": "SCALAR"
    },
    {
      "bufferView": 2,
      "byteOffset": 3145536,
      "componentType": 5126,
      "count": 65532,
      "max": [
        0.3257906436920166,
        0.6213040947914124,
        -0.11692283302545547
      ],
      "min": [
        -0.3275519907474518,
        -0.6785429120063782,
        -0.9501461982727051
      ],
      "type": "VEC3"
    },
    {
      "bufferView": 2,
      "byteOffset": 3931920,
      "componentType": 5126,
      "count": 65532,
      "max": [
        1.0,
        0.9999380111694336,
        0.9993805885314941
      ],
      "min": [
        -1.0,
        -0.9999690055847168,
        -0.9999690055847168
      ],
      "type": "VEC3"
    },
    {
      "bufferView": 3,
      "byteOffset": 2097024,
      "componentType": 5126,
      "count": 65532,
      "max": [
        0.9999562501907349,
        0.9999929070472717,
        0.9999681115150452,
        1.0
      ],
      "min": [
        -0.9999682903289795,
        -0.9999794960021973,
        -0.999962568283081,
        -1.0
      ],
      "type": "VEC4"
    },
    {
      "bufferView": 1,
      "byteOffset": 4194048,
      "componentType": 5126,
      "count": 65532,
      "max": [
        0.9944225549697876,
        0.9999591708183289
      ],
      "min": [
        0.00032112927874550223,
        0.004171297419816256
      ],
      "type": "VEC2"
    },
    {
      "bufferView": 1,
      "byteOffset": 4718304,
      "componentType": 5126,
      "count": 65532,
      "max": [
        0.9944225549697876,
        0.9999591708183289
      ],
      "min": [
        0.00032112927874550223,
        0.004171297419816256
      ],
      "type": "VEC2"
    },
    {
      "bufferView": 1,
      "byteOffset": 5242560,
      "componentType": 5126,
      "count": 65532,
      "max": [
        0.9944225549697876,
        0.9999591708183289
      ],
      "min": [
        0.00032112927874550223,
        0.004171297419816256
      ],
      "type": "VEC2"
    },
    {
      "bufferView": 1,
      "byteOffset": 5766816,
      "componentType": 5126,
      "count": 65532,
      "max": [
        0.9944225549697876,
        0.9999591708183289
      ],
      "min": [
        0.00032112927874550223,
        0.004171297419816256
      ],
      "type": "VEC2"
    },
    {
      "bufferView": 0,
      "byteOffset": 2700972,
      "componentType": 5125,
      "count": 342360,
      "type": "SCALAR"
    },
    {
      "bufferView": 2,
      "byteOffset": 4718304,
      "componentType": 5126,
      "count": 56305,
      "max": [
        0.2928743064403534,
        0.5873446464538574,
        0.4417274296283722
      ],
      "min": [
        -0.2967219054698944,
        -0.6773838996887207,
        -0.33632633090019226
      ],
      "type": "VEC3"
    },
    {
      "bufferView": 2,
      "byteOffset": 5393964,
      "componentType": 5126,
      "count": 56305,
      "max": [
        0.9999690055847168,
        0.9999690055847168,
        0.9999380111694336
      ],
      "min": [
        -0.9999690055847168,
        -0.9999690055847168,
        -0.9999380111694336
      ],
      "type": "VEC3"
    },
    {
      "bufferView": 3,
      "byteOffset": 3145536,
      "componentType": 5126,
      "count": 56305,
      "max": [
        0.9999837875366211,
        0.9999933838844299,
        0.9999473094940186,
        1.0
      ],
      "min": [
        -0.9999988675117493,
        -0.9999971389770508,
        -0.9999986290931702,
        -1.0
      ],
      "type": "VEC4"
    },
    {
      "bufferView": 1,
      "byteOffset": 6291072,
      "componentType": 5126,
      "count": 56305,
      "max": [
        0.9944225549697876,
        0.9999591708183289
      ],
      "min": [
        7.795380952302366e-05,
        2.014636993408203e-05
      ],
      "type": "VEC2"
    },
    {
      "bufferView": 1,
      "byteOffset": 6741512,
      "componentType": 5126,
      "count": 56305,
      "max": [
        0.9944225549697876,
        0.9999591708183289
      ],
      "min": [
        7.795380952302366e-05,
        2.014636993408203e-05
      ],
      "type": "VEC2"
    },
    {
      "bufferView": 1,
      "byteOffset": 7191952,
      "componentType": 5126,
      "count": 56305,
      "max": [
        0.9944225549697876,
        0.9999591708183289
      ],
      "min": [
        7.795380952302366e-05,
        2.014636993408203e-05
      ],
      "type": "VEC2"
    },
    {
      "bufferView": 1,
      "byteOffset": 7642392,
      "componentType": 5126,
      "count": 56305,
      "max": [
        0.9944225549697876,
        0.9999591708183289
      ],
      "min": [
        7.795380952302366e-05,
        2.014636993408203e-05
      ],
      "type": "VEC2"
    },
    {
      "bufferView": 0,
      "byteOffset": 4070412,
      "componentType": 5125,
      "count": 292827,
      "type": "SCALAR"
    }
  ],
  "asset": {
    "extras": {
      "author": "iRahulRajput (https://sketchfab.com/rt699448)",
      "license": "CC-BY-4.0 (http://creativecommons.org/licenses/by/4.0/)",
      "source": "https://sketchfab.com/3d-models/pug-3d-model-4b66f304f45b4c8a8ad2d450baaf112e",
      "title": "Pug 3d model"
    },
    "generator": "Sketchfab-17.8.0",
    "version": "2.0"
  },
  "bufferViews": [
    {
      "buffer": 0,
      "byteLength": 5241720,
      "name": "floatBufferViews",
      "target": 34963
    },
    {
      "buffer": 0,
      "byteLength": 8092832,
      "byteOffset": 5241720,
      "byteStride": 8,
      "name": "floatBufferViews",
      "target": 34962
    },
    {
      "buffer": 0,
      "byteLength": 6069624,
      "byteOffset": 13334552,
      "byteStride": 12,
      "name": "floatBufferViews",
      "target": 34962
    },
    {
      "buffer": 0,
      "byteLength": 4046416,
      "byteOffset": 19404176,
      "byteStride": 16,
      "name": "floatBufferViews",
      "target": 34962
    }
  ],
  "buffers": [
    {
      "byteLength": 23450592,
      "uri": "scene.bin"
    }
  ],
  "extensionsUsed": [
    "KHR_materials_specular"
  ],
  "images": [
    {
      "uri": "textures/material_0_baseColor.png"
    },
    {
      "uri": "textures/material_0_metallicRoughness.png"
    },
    {
      "uri": "textures/material_0_normal.png"
    }
  ],
  "materials": [
    {
      "doubleSided": true,
      "extensions": {
        "KHR_materials_specular": {
          "specularColorFactor": [
            1.0,
            1.0,
            1.0
          ],
          "specularFactor": 0.0
        }
      },
      "name": "material_0",
      "normalTexture": {
        "index": 2,
        "texCoord": 2
      },
      "pbrMetallicRoughness": {
        "baseColorTexture": {
          "index": 0
        },
        "metallicRoughnessTexture": {
          "index": 1,
          "texCoord": 1
        }
      }
    }
  ],
  "meshes": [
    {
      "name": "Object_0",
      "primitives": [
        {
          "attributes": {
            "NORMAL": 1,
            "POSITION": 0,
            "TANGENT": 2,
            "TEXCOORD_0": 3,
            "TEXCOORD_1": 4,
            "TEXCOORD_2": 5,
            "TEXCOORD_3": 6
          },
          "indices": 7,
          "material": 0,
          "mode": 4
        }
      ]
    },
    {
      "name": "Object_1",
      "primitives": [
        {
          "attributes": {
            "NORMAL": 9,
            "POSITION": 8,
            "TANGENT": 10,
            "TEXCOORD_0": 11,
            "TEXCOORD_1": 12,
            "TEXCOORD_2": 13,
            "TEXCOORD_3": 14
          },
          "indices": 15,
          "material": 0,
          "mode": 4
        }
      ]
    },
    {
      "name": "Object_2",
      "primitives": [
        {
          "attributes": {
            "NORMAL": 17,
            "POSITION": 16,
            "TANGENT": 18,
            "TEXCOORD_0": 19,
            "TEXCOORD_1": 20,
            "TEXCOORD_2": 21,
            "TEXCOORD_3": 22
          },
          "indices": 23,
          "material": 0,
          "mode": 4
        }
      ]
    },
    {
      "name": "Object_3",
      "primitives": [
        {
          "attributes": {
            "NORMAL": 25,
            "POSITION": 24,
            "TANGENT": 26,
            "TEXCOORD_0": 27,
            "TEXCOORD_1": 28,
            "TEXCOORD_2": 29,
            "TEXCOORD_3": 30
          },
          "indices": 31,
          "material": 0,
          "mode": 4
        }
      ]
    }
  ],
  "nodes": [
    {
      "children": [
        1
      ],
      "matrix": [
        1.0,
        0.0,
        0.0,
        0.0,
        0.0,
        2.220446049250313e-16,
        -1.0,
        0.0,
        0.0,
        1.0,
        2.220446049250313e-16,
        0.0,
        0.0,
        0.0,
        0.0,
        1.0
      ],
      "name": "Sketchfab_model"
    },
    {
      "children": [
        2
      ],
      "name": "root"
    },
    {
      "children": [
        3
      ],
      "matrix": [
        1.0,
        0.0,
        0.0,
        0.0,
        0.0,
        2.220446049250313e-16,
        1.0,
        0.0,
        0.0,
        -1.0,
        2.220446049250313e-16,
        0.0,
        0.0,
        0.0,
        0.0,
        1.0
      ],
      "name": "GLTF_SceneRootNode"
    },
    {
      "children": [
        4
      ],
      "name": "_1"
    },
    {
      "children": [
        5,
        6,
        7,
        8
      ],
      "name": "mesh_0_0"
    },
    {
      "mesh": 0,
      "name": "Object_5"
    },
    {
      "mesh": 1,
      "name": "Object_6"
    },
    {
      "mesh": 2,
      "name": "Object_7"
    },
    {
      "mesh": 3,
      "name": "Object_8"
    }
  ],
  "samplers": [
    {
      "magFilter": 9729,
      "minFilter": 9987,
      "wrapS": 10497,
      "wrapT": 10497
    }
  ],
  "scene": 0,
  "scenes": [
    {
      "name": "Sketchfab_Scene",
      "nodes": [
        0
      ]
    }
  ],
  "textures": [
    {
      "sampler": 0,
      "source": 0
    },
    {
      "sampler": 0,
      "source": 1
    },
    {
      "sampler": 0,
      "source": 2
    }
  ]
}
