{
  "accessors": [
    {
      "bufferView": 2,
      "componentType": 5126,
      "count": 5120,
      "max": [
        5.041447162628174,
        -2.996889114379883,
        45.58393096923828
      ],
      "min": [
        -5.160983085632324,
        -3.13703989982605,
        14.356111526489258
      ],
      "type": "VEC3"
    },
    {
      "bufferView": 2,
      "byteOffset": 61440,
      "componentType": 5126,
      "count": 5120,
      "max": [
        0.16909639537334442,
        -0.9773398041725159,
        0.1300969272851944
      ],
      "min": [
        -0.20810848474502563,
        -0.9999845027923584,
        -0.15630444884300232
      ],
      "type": "VEC3"
    },
    {
      "bufferView": 1,
      "componentType": 5126,
      "count": 5120,
      "max": [
        0.78125,
        0.6666669845581055
      ],
      "min": [
        0.71875,
        0.6666669845581055
      ],
      "type": "VEC2"
    },
    {
      "bufferView": 0,
      "componentType": 5125,
      "count": 7680,
      "type": "SCALAR"
    },
    {
      "bufferView": 2,
      "byteOffset": 122880,
      "componentType": 5126,
      "count": 38,
      "max": [
        32.439247131347656,
        -4.490694046020508,
        0.8155859708786011
      ],
      "min": [
        -32.448394775390625,
        -13.904494285583496,
        0.8155859708786011
      ],
      "type": "VEC3"
    },
    {
      "bufferView": 2,
      "byteOffset": 123336,
      "componentType": 5126,
      "count": 38,
      "max": [
        0.0,
        -0.0,
        1.0
      ],
      "min": [
        0.0,
        -0.0,
        -1.0
      ],
      "type": "VEC3"
    },
    {
      "bufferView": 1,
      "byteOffset": 40960,
      "componentType": 5126,
      "count": 38,
      "max": [
        0.375,
        0.937857985496521
      ],
      "min": [
        0.125,
        0.6658589839935303
      ],
      "type": "VEC2"
    },
    {
      "bufferView": 0,
      "byteOffset": 30720,
      "componentType": 5125,
      "count": 72,
      "type": "SCALAR"
    },
    {
      "bufferView": 2,
      "byteOffset": 123792,
      "componentType": 5126,
      "count": 137,
      "max": [
        46.51923751831055,
        19.940994262695313,
        0.8155859708786011
      ],
      "min": [
        -46.53873825073242,
        -19.940994262695313,
        0.4855859875679016
      ],
      "type": "VEC3"
    },
    {
      "bufferView": 2,
      "byteOffset": 125436,
      "componentType": 5126,
      "count": 137,
      "max": [
        0.015299739316105843,
        0.03569866344332695,
        0.9998829364776611
      ],
      "min": [
        -0.19450049102306366,
        -0.03569866344332695,
        -1.0
      ],
      "type": "VEC3"
    },
    {
      "bufferView": 1,
      "byteOffset": 41264,
      "componentType": 5126,
      "count": 137,
      "max": [
        0.375,
        0.9375
      ],
      "min": [
        0.125,
        0.16666699945926666
      ],
      "type": "VEC2"
    },
    {
      "bufferView": 0,
      "byteOffset": 31008,
      "componentType": 5125,
      "count": 252,
      "type": "SCALAR"
    },
    {
      "bufferView": 2,
      "byteOffset": 127080,
      "componentType": 5126,
      "count": 7629,
      "max": [
        14.528968811035156,
        6.456265926361084,
        86.31877136230469
      ],
      "min": [
        -14.526741027832031,
        -6.456265926361084,
        5.3664422035217285
      ],
      "type": "VEC3"
    },
    {
      "bufferView": 2,
      "byteOffset": 218628,
      "componentType": 5126,
      "count": 7629,
      "max": [
        1.0,
        1.0,
        1.0
      ],
      "min": [
        -1.0,
        -1.0,
        -1.0
      ],
      "type": "VEC3"
    },
    {
      "bufferView": 1,
      "byteOffset": 42360,
      "componentType": 5126,
      "count": 7629,
      "max": [
        0.8125,
        0.7191540002822876
      ],
      "min": [
        0.0,
        0.0
      ],
      "type": "VEC2"
    },
    {
      "bufferView": 0,
      "byteOffset": 32016,
      "componentType": 5125,
      "count": 14532,
      "type": "SCALAR"
    },
    {
      "bufferView": 2,
      "byteOffset": 310176,
      "componentType": 5126,
      "count": 9829,
      "max": [
        4.98475980758667,
        2.857142925262451,
        81.97776794433594
      ],
      "min": [
        -5.0152411460876465,
        -4.4571428298950195,
        1.1855839490890503
      ],
      "type": "VEC3"
    },
    {
      "bufferView": 2,
      "byteOffset": 428124,
      "componentType": 5126,
      "count": 9829,
      "max": [
        1.0,
        1.0,
        1.0
      ],
      "min": [
        -1.0,
        -1.0,
        -1.0
      ],
      "type": "VEC3"
    },
    {
      "bufferView": 1,
      "byteOffset": 103392,
      "componentType": 5126,
      "count": 9829,
      "max": [
        0.875,
        1.0
      ],
      "min": [
        0.0,
        0.0
      ],
      "type": "VEC2"
    },
    {
      "bufferView": 0,
      "byteOffset": 90144,
      "componentType": 5125,
      "count": 18918,
      "type": "SCALAR"
    },
    {
      "bufferView": 2,
      "byteOffset": 546072,
      "componentType": 5126,
      "count": 2908,
      "max": [
        19.91179656982422,
        8.510028839111328,
        84.99077606201172
      ],
      "min": [
        -19.52367401123047,
        -8.45714282989502,
        1.199429988861084
      ],
      "type": "VEC3"
    },
    {
      "bufferView": 2,
      "byteOffset": 580968,
      "componentType": 5126,
      "count": 2908,
      "max": [
        1.0,
        1.0,
        1.0
      ],
      "min": [
        -1.0,
        -1.0,
        -1.0
      ],
      "type": "VEC3"
    },
    {
      "bufferView": 1,
      "byteOffset": 182024,
      "componentType": 5126,
      "count": 2908,
      "max": [
        1.0,
        1.0
      ],
      "min": [
        0.0,
        0.0
      ],
      "type": "VEC2"
    },
    {
      "bufferView": 0,
      "byteOffset": 165816,
      "componentType": 5125,
      "count": 6138,
      "type": "SCALAR"
    },
    {
      "bufferView": 2,
      "byteOffset": 615864,
      "componentType": 5126,
      "count": 11456,
      "max": [
        33.44783401489258,
        14.336904525756836,
        17.149085998535156
      ],
      "min": [
        -33.457725524902344,
        -14.336904525756836,
        -1.7844140529632568
      ],
      "type": "VEC3"
    },
    {
      "bufferView": 2,
      "byteOffset": 753336,
      "componentType": 5126,
      "count": 11456,
      "max": [
        1.0,
        1.0,
        1.0
      ],
      "min": [
        -1.0,
        -1.0,
        -1.0
      ],
      "type": "VEC3"
    },
    {
      "bufferView": 1,
      "byteOffset": 205288,
      "componentType": 5126,
      "count": 11456,
      "max": [
        0.875,
        1.0
      ],
      "min": [
        0.0,
        0.0
      ],
      "type": "VEC2"
    },
    {
      "bufferView": 0,
      "byteOffset": 190368,
      "componentType": 5125,
      "count": 22206,
      "type": "SCALAR"
    },
    {
      "bufferView": 2,
      "byteOffset": 890808,
      "componentType": 5126,
      "count": 550,
      "max": [
        19.965229034423828,
        8.557143211364746,
        85.13935089111328
      ],
      "min": [
        -19.963001251220703,
        -8.456275939941406,
        45.70130920410156
      ],
      "type": "VEC3"
    },
    {
      "bufferView": 2,
      "byteOffset": 897408,
      "componentType": 5126,
      "count": 550,
      "max": [
        1.0,
        1.0,
        1.0
      ],
      "min": [
        -1.0,
        -1.0,
        -1.0
      ],
      "type": "VEC3"
    },
    {
      "bufferView": 1,
      "byteOffset": 296936,
      "componentType": 5126,
      "count": 550,
      "max": [
        0.8162320256233215,
        0.7191540002822876
      ],
      "min": [
        0.0,
        0.0
      ],
      "type": "VEC2"
    },
    {
      "bufferView": 0,
      "byteOffset": 279192,
      "componentType": 5125,
      "count": 972,
      "type": "SCALAR"
    },
    {
      "bufferView": 2,
      "byteOffset": 904008,
      "componentType": 5126,
      "count": 12458,
      "max": [
        16.986736297607422,
        6.633786201477051,
        81.60762023925781
      ],
      "min": [
        -16.984506607055664,
        -6.633786201477051,
        51.46703338623047
      ],
      "type": "VEC3"
    },
    {
      "bufferView": 2,
      "byteOffset": 1053504,
      "componentType": 5126,
      "count": 12458,
      "max": [
        1.0,
        0.9998036026954651,
        1.0
      ],
      "min": [
        -1.0,
        -0.9998036026954651,
        -1.0
      ],
      "type": "VEC3"
    },
    {
      "bufferView": 1,
      "byteOffset": 301336,
      "componentType": 5126,
      "count": 12458,
      "max": [
        0.8126230239868164,
        0.7191540002822876
      ],
      "min": [
        0.78125,
        0.5308459997177124
      ],
      "type": "VEC2"
    },
    {
      "bufferView": 0,
      "byteOffset": 283080,
      "componentType": 5125,
      "count": 19320,
      "type": "SCALAR"
    },
    {
      "bufferView": 2,
      "byteOffset": 1203000,
      "componentType": 5126,
      "count": 65533,
      "max": [
        21.343585968017578,
        9.595428466796875,
        45.8330192565918
      ],
      "min": [
        -21.343585968017578,
        -9.466899871826172,
        14.329900741577148
      ],
      "type": "VEC3"
    },
    {
      "bufferView": 2,
      "byteOffset": 1989396,
      "componentType": 5126,
      "count": 65533,
      "max": [
        1.0,
        1.0,
        1.0
      ],
      "min": [
        -1.0,
        -1.0,
        -1.0
      ],
      "type": "VEC3"
    },
    {
      "bufferView": 1,
      "byteOffset": 401000,
      "componentType": 5126,
      "count": 65533,
      "max": [
        0.8129040002822876,
        0.7191540002822876
      ],
      "min": [
        0.0,
        0.0
      ],
      "type": "VEC2"
    },
    {
      "bufferView": 0,
      "byteOffset": 360360,
      "componentType": 5125,
      "count": 102471,
      "type": "SCALAR"
    },
    {
      "bufferView": 2,
      "byteOffset": 2775792,
      "componentType": 5126,
      "count": 33527,
      "max": [
        21.343585968017578,
        9.595428466796875,
        36.382080078125
      ],
      "min": [
        -21.343585968017578,
        -9.466899871826172,
        17.480213165283203
      ],
      "type": "VEC3"
    },
    {
      "bufferView": 2,
      "byteOffset": 3178116,
      "componentType": 5126,
      "count": 33527,
      "max": [
        1.0,
        1.0,
        1.0
      ],
      "min": [
        -1.0,
        -1.0,
        -1.0
      ],
      "type": "VEC3"
    },
    {
      "bufferView": 1,
      "byteOffset": 925264,
      "componentType": 5126,
      "count": 33527,
      "max": [
        0.8129040002822876,
        0.7191540002822876
      ],
      "min": [
        0.0,
        0.0
      ],
      "type": "VEC2"
    },
    {
      "bufferView": 0,
      "byteOffset": 770244,
      "componentType": 5125,
      "count": 51609,
      "type": "SCALAR"
    },
    {
      "bufferView": 2,
      "byteOffset": 3580440,
      "componentType": 5126,
      "count": 4124,
      "max": [
        19.654312133789063,
        8.402984619140625,
        84.18494415283203
      ],
      "min": [
        -19.79600715637207,
        -8.302118301391602,
        1.2155859470367432
      ],
      "type": "VEC3"
    },
    {
      "bufferView": 2,
      "byteOffset": 3629928,
      "componentType": 5126,
      "count": 4124,
      "max": [
        1.0,
        1.0,
        0.21590326726436615
      ],
      "min": [
        -1.0,
        -1.0,
        -0.01589958183467388
      ],
      "type": "VEC3"
    },
    {
      "bufferView": 1,
      "byteOffset": 1193480,
      "componentType": 5126,
      "count": 4124,
      "max": [
        0.8129040002822876,
        0.9922270178794861
      ],
      "min": [
        0.0,
        0.0
      ],
      "type": "VEC2"
    },
    {
      "bufferView": 0,
      "byteOffset": 976680,
      "componentType": 5125,
      "count": 7878,
      "type": "SCALAR"
    }
  ],
  "asset": {
    "extras": {
      "author": "VertaScan (https://sketchfab.com/VertaScan)",
      "license": "CC-BY-4.0 (http://creativecommons.org/licenses/by/4.0/)",
      "source": "https://sketchfab.com/3d-models/commercial-building-concept-480a1743bf364e629cc5a63aef139fb6",
      "title": "commercial building concept"
    },
    "generator": "Sketchfab-12.92.0",
    "version": "2.0"
  },
  "bufferViews": [
    {
      "buffer": 0,
      "byteLength": 1008192,
      "name": "floatBufferViews",
      "target": 34963
    },
    {
      "buffer": 0,
      "byteLength": 1226472,
      "byteOffset": 1008192,
      "byteStride": 8,
      "name": "floatBufferViews",
      "target": 34962
    },
    {
      "buffer": 0,
      "byteLength": 3679416,
      "byteOffset": 2234664,
      "byteStride": 12,
      "name": "floatBufferViews",
      "target": 34962
    }
  ],
  "buffers": [
    {
      "byteLength": 5914080,
      "uri": "scene.bin"
    }
  ],
  "extensionsUsed": [
    "KHR_materials_clearcoat"
  ],
  "materials": [
    {
      "doubleSided": true,
      "extensions": {
        "KHR_materials_clearcoat": {
          "clearcoatFactor": 1.0,
          "clearcoatRoughnessFactor": 0.04
        }
      },
      "name": "ext_mat_1",
      "pbrMetallicRoughness": {
        "baseColorFactor": [
          0.3206165176906652,
          0.3206165176906652,
          0.3206165176906652,
          1.0
        ],
        "roughnessFactor": 0.8883836598359156
      }
    },
    {
      "doubleSided": true,
      "name": "fractal",
      "pbrMetallicRoughness": {
        "metallicFactor": 0.0,
        "roughnessFactor": 0.6
      }
    },
    {
      "alphaMode": "BLEND",
      "extensions": {
        "KHR_materials_clearcoat": {
          "clearcoatFactor": 1.0,
          "clearcoatRoughnessFactor": 0.04
        }
      },
      "name": "glass",
      "pbrMetallicRoughness": {
        "baseColorFactor": [
          0.10434072804241912,
          0.25219667202426793,
          0.25730578540798066,
          0.9249551998634662
        ],
        "roughnessFactor": 0.14476234594238763
      }
    },
    {
      "name": "grass",
      "pbrMetallicRoughness": {
        "baseColorFactor": [
          0.8,
          0.8,
          0.8,
          1.0
        ],
        "metallicFactor": 0.0,
        "roughnessFactor": 0.4
      }
    },
    {
      "alphaMode": "BLEND",
      "name": "road",
      "pbrMetallicRoughness": {
        "baseColorFactor": [
          0.8,
          0.8,
          0.8,
          0.0
        ],
        "metallicFactor": 0.7664785264107471,
        "roughnessFactor": 0.4
      }
    }
  ],
  "meshes": [
    {
      "name": "Object_0",
      "primitives": [
        {
          "attributes": {
            "NORMAL": 1,
            "POSITION": 0,
            "TEXCOORD_0": 2
          },
          "indices": 3,
          "material": 1,
          "mode": 4
        }
      ]
    },
    {
      "name": "Object_1",
      "primitives": [
        {
          "attributes": {
            "NORMAL": 5,
            "POSITION": 4,
            "TEXCOORD_0": 6
          },
          "indices": 7,
          "material": 3,
          "mode": 4
        }
      ]
    },
    {
      "name": "Object_2",
      "primitives": [
        {
          "attributes": {
            "NORMAL": 9,
            "POSITION": 8,
            "TEXCOORD_0": 10
          },
          "indices": 11,
          "material": 4,
          "mode": 4
        }
      ]
    },
    {
      "name": "Object_3",
      "primitives": [
        {
          "attributes": {
            "NORMAL": 13,
            "POSITION": 12,
            "TEXCOORD_0": 14
          },
          "indices": 15,
          "material": 0,
          "mode": 4
        }
      ]
    },
    {
      "name": "Object_4",
      "primitives": [
        {
          "attributes": {
            "NORMAL": 17,
            "POSITION": 16,
            "TEXCOORD_0": 18
          },
          "indices": 19,
          "material": 0,
          "mode": 4
        }
      ]
    },
    {
      "name": "Object_5",
      "primitives": [
        {
          "attributes": {
            "NORMAL": 21,
            "POSITION": 20,
            "TEXCOORD_0": 22
          },
          "indices": 23,
          "material": 0,
          "mode": 4
        }
      ]
    },
    {
      "name": "Object_6",
      "primitives": [
        {
          "attributes": {
            "NORMAL": 25,
            "POSITION": 24,
            "TEXCOORD_0": 26
          },
          "indices": 27,
          "material": 0,
          "mode": 4
        }
      ]
    },
    {
      "name": "Object_7",
      "primitives": [
        {
          "attributes": {
            "NORMAL": 29,
            "POSITION": 28,
            "TEXCOORD_0": 30
          },
          "indices": 31,
          "material": 0,
          "mode": 4
        }
      ]
    },
    {
      "name": "Object_8",
      "primitives": [
        {
          "attributes": {
            "NORMAL": 33,
            "POSITION": 32,
            "TEXCOORD_0": 34
          },
          "indices": 35,
          "material": 0,
          "mode": 4
        }
      ]
    },
    {
      "name": "Object_9",
      "primitives": [
        {
          "attributes": {
            "NORMAL": 37,
            "POSITION": 36,
            "TEXCOORD_0": 38
          },
          "indices": 39,
          "material": 0,
          "mode": 4
        }
      ]
    },
    {
      "name": "Object_10",
      "primitives": [
        {
          "attributes": {
            "NORMAL": 41,
            "POSITION": 40,
            "TEXCOORD_0": 42
          },
          "indices": 43,
          "material": 0,
          "mode": 4
        }
      ]
    },
    {
      "name": "Object_11",
      "primitives": [
        {
          "attributes": {
            "NORMAL": 45,
            "POSITION": 44,
            "TEXCOORD_0": 46
          },
          "indices": 47,
          "material": 2,
          "mode": 4
        }
      ]
    }
  ],
  "nodes": [
    {
      "children": [
        1
      ],
      "matrix": [
        1.0,
        0.0,
        0.0,
        0.0,
        0.0,
        2.220446049250313e-16,
        -1.0,
        0.0,
        0.0,
        1.0,
        2.220446049250313e-16,
        0.0,
        0.0,
        0.0,
        0.0,
        1.0
      ],
      "name": "Sketchfab_model"
    },
    {
      "children": [
        2,
        3,
        4,
        5,
        6,
        7,
        8,
        9,
        10,
        11,
        12,
        13
      ],
      "name": "comm build.obj.cleaner.materialmerger.gles"
    },
    {
      "mesh": 0,
      "name": "Object_2"
    },
    {
      "mesh": 1,
      "name": "Object_3"
    },
    {
      "mesh": 2,
      "name": "Object_4"
    },
    {
      "mesh": 3,
      "name": "Object_5"
    },
    {
      "mesh": 4,
      "name": "Object_6"
    },
    {
      "mesh": 5,
      "name": "Object_7"
    },
    {
      "mesh": 6,
      "name": "Object_8"
    },
    {
      "mesh": 7,
      "name": "Object_9"
    },
    {
      "mesh": 8,
      "name": "Object_10"
    },
    {
      "mesh": 9,
      "name": "Object_11"
    },
    {
      "mesh": 10,
      "name": "Object_12"
    },
    {
      "mesh": 11,
      "name": "Object_13"
    }
  ],
  "scene": 0,
  "scenes": [
    {
      "name": "Sketchfab_Scene",
      "nodes": [
        0
      ]
    }
  ]
}
