{
  "accessors": [
    {
      "bufferView": 2,
      "componentType": 5126,
      "count": 65532,
      "max": [
        40.83649826049805,
        20.163000106811523,
        162.35560607910156
      ],
      "min": [
        -24.590999603271484,
        -27.654800415039063,
        -0.6312000155448914
      ],
      "type": "VEC3"
    },
    {
      "bufferView": 2,
      "byteOffset": 786384,
      "componentType": 5126,
      "count": 65532,
      "max": [
        0.9999787211418152,
        0.9999890923500061,
        0.9999479651451111
      ],
      "min": [
        -0.9999881386756897,
        -0.9999927282333374,
        -0.9999930262565613
      ],
      "type": "VEC3"
    },
    {
      "bufferView": 1,
      "componentType": 5126,
      "count": 65532,
      "max": [
        0.9937000274658203,
        0.9994999766349792
      ],
      "min": [
        0.0005000000237487257,
        0.0005000829696655273
      ],
      "type": "VEC2"
    },
    {
      "bufferView": 0,
      "componentType": 5125,
      "count": 336249,
      "type": "SCALAR"
    },
    {
      "bufferView": 2,
      "byteOffset": 1572768,
      "componentType": 5126,
      "count": 57436,
      "max": [
        40.66699981689453,
        20.160999298095703,
        170.78289794921875
      ],
      "min": [
        -24.531600952148438,
        -27.643999099731445,
        -0.6312000155448914
      ],
      "type": "VEC3"
    },
    {
      "bufferView": 2,
      "byteOffset": 2262000,
      "componentType": 5126,
      "count": 57436,
      "max": [
        0.9999614953994751,
        0.9999484419822693,
        0.9999819993972778
      ],
      "min": [
        -0.9999796748161316,
        -0.9999665021896362,
        -0.9999901652336121
      ],
      "type": "VEC3"
    },
    {
      "bufferView": 1,
      "byteOffset": 524256,
      "componentType": 5126,
      "count": 57436,
      "max": [
        0.9965999722480774,
        0.9965000152587891
      ],
      "min": [
        0.0035000001080334187,
        0.000800013542175293
      ],
      "type": "VEC2"
    },
    {
      "bufferView": 0,
      "byteOffset": 1344996,
      "componentType": 5125,
      "count": 263301,
      "type": "SCALAR"
    }
  ],
  "asset": {
    "extras": {
      "author": "Renderpeople (https://sketchfab.com/renderpeople)",
      "license": "CC-BY-4.0 (http://creativecommons.org/licenses/by/4.0/)",
      "source": "https://sketchfab.com/3d-models/fabienne-percy-001-mother-and-child-8c9bfd4fb8a444b3a42a4fc31935a2fb",
      "title": "Fabienne & Percy 001 - Mother and Child"
    },
    "generator": "Sketchfab-12.66.0",
    "version": "2.0"
  },
  "bufferViews": [
    {
      "buffer": 0,
      "byteLength": 2398200,
      "name": "floatBufferViews",
      "target": 34963
    },
    {
      "buffer": 0,
      "byteLength": 983744,
      "byteOffset": 2398200,
      "byteStride": 8,
      "name": "floatBufferViews",
      "target": 34962
    },
    {
      "buffer": 0,
      "byteLength": 2951232,
      "byteOffset": 3381944,
      "byteStride": 12,
      "name": "floatBufferViews",
      "target": 34962
    }
  ],
  "buffers": [
    {
      "byteLength": 6333176,
      "uri": "scene.bin"
    }
  ],
  "images": [
    {
      "uri": "textures/rp_fabienne_percy_posed_001_200k_mat_baseColor.jpeg"
    }
  ],
  "materials": [
    {
      "doubleSided": true,
      "name": "rp_fabienne_percy_posed_001_200k_mat",
      "pbrMetallicRoughness": {
        "baseColorTexture": {
          "index": 0
        },
        "metallicFactor": 0.0,
        "roughnessFactor": 0.6
      }
    }
  ],
  "meshes": [
    {
      "name": "rp_fabienne_percy_posed_001_200k_rp_fabienne_percy_posed_001_200k_mat_0",
      "primitives": [
        {
          "attributes": {
            "NORMAL": 1,
            "POSITION": 0,
            "TEXCOORD_0": 2
          },
          "indices": 3,
          "material": 0,
          "mode": 4
        }
      ]
    },
    {
      "name": "rp_fabienne_percy_posed_001_200k_rp_fabienne_percy_posed_001_200k_mat_0",
      "primitives": [
        {
          "attributes": {
            "NORMAL": 5,
            "POSITION": 4,
            "TEXCOORD_0": 6
          },
          "indices": 7,
          "material": 0,
          "mode": 4
        }
      ]
    }
  ],
  "nodes": [
    {
      "children": [
        1
      ],
      "matrix": [
        1.0,
        0.0,
        0.0,
        0.0,
        0.0,
        2.220446049250313e-16,
        -1.0,
        0.0,
        0.0,
        1.0,
        2.220446049250313e-16,
        0.0,
        0.0,
        0.0,
        0.0,
        1.0
      ],
      "name": "Sketchfab_model"
    },
    {
      "children": [
        2
      ],
      "matrix": [
        1.0,
        0.0,
        0.0,
        0.0,
        0.0,
        0.0,
        1.0,
        0.0,
        0.0,
        -1.0,
        0.0,
        0.0,
        0.0,
        0.0,
        0.0,
        1.0
      ],
      "name": "13b0db50c699462a93e809f135a3abd0.fbx"
    },
    {
      "children": [
        3
      ],
      "name": "RootNode"
    },
    {
      "children": [
        4,
        5
      ],
      "matrix": [
        1.0,
        0.0,
        0.0,
        0.0,
        0.0,
        2.220446049250313e-16,
        -1.0,
        0.0,
        0.0,
        1.0,
        2.220446049250313e-16,
        0.0,
        0.0,
        0.0,
        0.0,
        1.0
      ],
      "name": "rp_fabienne_percy_posed_001_200k"
    },
    {
      "mesh": 0,
      "name": "rp_fabienne_percy_posed_001_200k_rp_fabienne_percy_posed_001_200k_mat_0"
    },
    {
      "mesh": 1,
      "name": "rp_fabienne_percy_posed_001_200k_rp_fabienne_percy_posed_001_200k_mat_0"
    }
  ],
  "samplers": [
    {
      "magFilter": 9729,
      "minFilter": 9987,
      "wrapS": 10497,
      "wrapT": 10497
    }
  ],
  "scene": 0,
  "scenes": [
    {
      "name": "Sketchfab_Scene",
      "nodes": [
        0
      ]
    }
  ],
  "textures": [
    {
      "sampler": 0,
      "source": 0
    }
  ]
}
